<?xml version="1.0" encoding="utf-8"?>
<!-- Generator: Adobe Illustrator 24.2.1, SVG Export Plug-In . SVG Version: 6.00 Build 0)  -->
<svg version="1.1" id="Layer_1" xmlns="http://www.w3.org/2000/svg" xmlns:xlink="http://www.w3.org/1999/xlink" x="0px" y="0px"
	 viewBox="0 0 96 96" style="enable-background:new 0 0 96 96;" xml:space="preserve">
<style type="text/css">
	.st0{opacity:0.68;}
	.st1{fill:#FFFFFF;}
</style>
<g>
	<path class="st0" d="M79.7,16.4C62.3-1.1,34-1.1,16.6,16.4c-17.4,17.4-17.4,45.7,0,63.2C34,97,62.3,97,79.7,79.6
		C97.2,62.1,97.2,33.8,79.7,16.4z"/>
	<g>
		<path class="st1" d="M48.1,95.4c-12.2,0-24.3-4.6-33.6-13.9C-3.9,63-3.9,32.9,14.6,14.4c18.5-18.5,48.6-18.5,67.1,0l0,0
			c9,9,13.9,20.9,13.9,33.6c0,12.7-4.9,24.6-13.9,33.6C72.5,90.8,60.3,95.4,48.1,95.4z M48.1,6.1c-10.7,0-21.4,4.1-29.6,12.2
			c-16.3,16.3-16.3,42.9,0,59.2c16.3,16.3,42.9,16.3,59.2,0C85.7,69.7,90,59.2,90,48c0-11.2-4.4-21.7-12.3-29.6
			C69.6,10.2,58.9,6.1,48.1,6.1z"/>
	</g>
	<path class="st1" d="M62.1,66.8L48.1,52.9L34.2,66.8c-1.4,1.4-3.6,1.4-4.9,0c-1.4-1.4-1.4-3.6,0-4.9L43.2,48L29.3,34.1
		c-1.4-1.4-1.4-3.6,0-4.9c1.4-1.4,3.6-1.4,4.9,0L48.1,43l13.9-13.9c1.4-1.4,3.6-1.4,4.9,0c1.4,1.4,1.4,3.6,0,4.9L53.1,48L67,61.9
		c1.4,1.4,1.4,3.6,0,4.9C65.6,68.2,63.4,68.2,62.1,66.8z"/>
</g>
</svg>
